Simulation
nRows=20
nColumns=15
endheader
time  TH_x TH_y TH_z SC_y  SC_z  SC_x  AC_y  AC_z  AC_x  GH_y  GH_z  GH_yy  EL_x  PS_y
0.0  0.000000  0.000000  0.000000  -17.936528302738363  0.42353782947057195  9.278097998738696  59.87818212536462  -2.743197409301326  -11.350683972240942  1.049060079783445  17.416235680731432  29.704061473093454  29.830168458639193  120.000000
0.03  0.000000  0.000000  0.000000  -18.178684953973804  0.4738337457339365  8.879305913805721  60.43612555921986  -1.8336872049316078  -10.816738571701034  3.262989147561934  18.245836448663088  26.703838022692377  30.000468545870426  120.000000
0.06  0.000000  0.000000  0.000000  -18.489197230275586  0.5343978064411505  8.42260197972046  60.99095000608011  -0.9471767473307482  -10.255555270548308  5.337423460331323  19.01148780173491  23.59916532377942  30.219941249744537  120.000000
0.09  0.000000  0.000000  0.000000  -18.8299158605555  0.6010911329302759  7.9550775239781935  61.54125776345089  -0.08382537225041913  -9.68327177962036  7.285261900009359  19.74928110406821  20.42252035958792  30.49671284668188  120.000000
0.12  0.000000  0.000000  0.000000  -19.18997525235337  0.6794966507105336  7.498540854133972  62.094048483676055  0.7656916008354013  -9.107001016571765  9.148814850339466  20.50737882060789  17.16816500874189  30.83977562856193  120.000000
0.15  0.000000  0.000000  0.000000  -19.550853374200724  0.7681313005077997  7.071219911294686  62.65416746801115  1.6062036567952356  -8.536488277628242  10.933826670739158  21.32292730563917  13.863113420334477  31.245974476945467  120.000000
0.18  0.000000  0.000000  0.000000  -19.908433469772984  0.8666139349952895  6.681810864862157  63.22255358769552  2.4384079313334848  -7.97186064377217  12.643608966170381  22.227980733362173  10.528799940542994  31.711273540587623  120.000000
0.21  0.000000  0.000000  0.000000  -20.25159256184295  0.9725090375438714  6.334865765057902  63.80232318788189  3.2599703648024265  -7.415906263968055  14.263593079093821  23.24035192963696  7.198251211571659  32.225414854101686  120.000000
0.24  0.000000  0.000000  0.000000  -20.57570941501058  1.085045685572386  6.03067229731359  64.39380189369366  4.066810837189773  -6.866826564354265  15.774960595433814  24.367066605879625  3.9077049181959187  32.78008341187615  120.000000
0.27  0.000000  0.000000  0.000000  -20.874489338937725  1.2024755333233395  5.768709669273302  64.99627106084226  4.85660523580182  -6.324722562329739  17.155473211257295  25.603228671728548  0.6916607579834039  33.364193021265905  120.000000
0.3  0.000000  0.000000  0.000000  -21.146190258736993  1.3260331715660587  5.549059937585457  65.60838659413747  5.628858405121171  -5.7900119696942856  18.391494264688028  26.936718712271926  -2.4231476812685595  33.969044784676484  120.000000
0.32999999999999996  0.000000  0.000000  0.000000  -21.393807330788515  1.4567257323923803  5.373592427529339  66.22561206470509  6.3849535656844  -5.265662135860498  19.47758942614069  28.348178390077646  -5.422641118744212  34.58449079866092  120.000000
0.36  0.000000  0.000000  0.000000  -21.625913422756266  1.5975890297203876  5.244841099884391  66.84080523355134  7.128054904063062  -4.7574307745972195  20.4188735795486  29.81522439545302  -8.304370290147078  35.201273418292864  120.000000
0.39  0.000000  0.000000  0.000000  -21.859729510202396  1.7505399413930216  5.166892505194766  67.44472496244332  7.860281973641157  -4.272476849007044  21.23086215305243  31.31357560425188  -11.079238238132367  35.80960112809124  120.000000
0.42  0.000000  0.000000  0.000000  -22.110974830172793  1.9179442893543108  5.143789194492343  68.02667711098282  8.583477457882987  -3.818879248577739  21.932518714674167  32.82002039388466  -13.76210143492863  36.4003338112513  120.000000
0.44999999999999996  0.000000  0.000000  0.000000  -22.39755354226941  2.0997803931126198  5.179663834431508  68.57818080939676  9.29596455578685  -3.4032541038378654  22.54450000863704  34.31408397857341  -16.368919146170715  36.96466988682616  120.000000
0.48  0.000000  0.000000  0.000000  -22.72867963841902  2.2949359476891438  5.277219137361608  69.09246720757977  9.993937612194983  -3.0288996230514416  23.081739585764016  35.77873768751901  -18.906583653342214  37.49460160291127  120.000000
0.51  0.000000  0.000000  0.000000  -23.10547929116246  2.4997904570198077  5.435689169920459  69.56764933431384  10.67022465598885  -2.695880521520464  23.55269796926975  37.201963295874  -21.372861462082916  37.982669042690894  120.000000
0.54  0.000000  0.000000  0.000000  -23.5211960811171  2.7096615845067786  5.6523727171661795  70.00610057226528  11.31550293654122  -2.3984385951423706  23.958761457985837  38.5759678884155  -23.751552934799985  38.422853004584624  120.000000
0.57  0.000000  0.000000  0.000000  -23.959550821540926  2.920071559674662  5.9187006555132  70.4126725969343  11.920840709533552  -2.1294485302373767  24.29456384506884  39.89802053283575  -26.020429137353975  38.80954769714876  120.000000
